<?xml version="1.0" encoding="UTF-8"?>
<!DOCTYPE svg PUBLIC "-//W3C//DTD SVG 1.1//EN" "http://www.w3.org/Graphics/SVG/1.1/DTD/svg11.dtd">
<svg xmlns="http://www.w3.org/2000/svg" version="1.1" width="1280px" height="720px" style="shape-rendering:geometricPrecision; text-rendering:geometricPrecision; image-rendering:optimizeQuality; fill-rule:evenodd; clip-rule:evenodd" xmlns:xlink="http://www.w3.org/1999/xlink">
<g><path style="opacity:1" fill="#00331d" d="M -0.5,-0.5 C 296.167,-0.5 592.833,-0.5 889.5,-0.5C 889.5,112.5 889.5,225.5 889.5,338.5C 888.409,346.14 887.409,353.806 886.5,361.5C 885.215,364.589 884.549,367.922 884.5,371.5C 882.231,377.231 880.565,383.231 879.5,389.5C 877.471,395.274 875.804,401.274 874.5,407.5C 873.067,409.558 872.4,411.892 872.5,414.5C 870.72,415.99 870.054,417.99 870.5,420.5C 869.5,420.5 868.5,420.5 867.5,420.5C 865.718,427.61 863.718,434.61 861.5,441.5C 860.5,441.5 859.5,441.5 858.5,441.5C 858.657,442.873 858.49,444.207 858,445.5C 854.253,453.591 850.42,461.591 846.5,469.5C 844.833,472.167 843.167,474.833 841.5,477.5C 838.59,480.158 836.59,483.491 835.5,487.5C 829.113,495.014 823.446,503.014 818.5,511.5C 817.272,512.306 816.272,513.306 815.5,514.5C 813.469,515.539 812.136,517.205 811.5,519.5C 809.469,520.539 808.136,522.205 807.5,524.5C 805.956,524.703 804.622,525.37 803.5,526.5C 801.06,529.261 799.06,532.261 797.5,535.5C 796.833,535.5 796.5,535.833 796.5,536.5C 793.167,537.833 790.833,540.167 789.5,543.5C 785.5,544.833 782.833,547.5 781.5,551.5C 780.167,551.5 779.5,552.167 779.5,553.5C 777.068,554.75 774.734,556.25 772.5,558C 771.177,558.816 770.511,559.983 770.5,561.5C 768.5,562.167 767.167,563.5 766.5,565.5C 762.879,567.131 759.879,569.465 757.5,572.5C 753.264,574.723 749.264,577.389 745.5,580.5C 744.066,581.588 743.066,582.922 742.5,584.5C 739.201,586.446 735.868,588.446 732.5,590.5C 731.702,590.957 731.369,591.624 731.5,592.5C 726.292,594.396 721.959,597.396 718.5,601.5C 716.033,601.755 714.033,602.755 712.5,604.5C 706.882,607.808 701.549,611.475 696.5,615.5C 687.985,619.097 679.985,623.431 672.5,628.5C 672.167,628.5 671.833,628.5 671.5,628.5C 666.517,629.915 662.184,632.248 658.5,635.5C 657.209,635.263 656.209,635.596 655.5,636.5C 654.127,636.343 652.793,636.51 651.5,637C 646.141,640.008 640.808,642.841 635.5,645.5C 633.847,645.66 632.514,646.326 631.5,647.5C 627.467,648.025 623.8,649.358 620.5,651.5C 619.391,651.557 618.391,651.89 617.5,652.5C 612.808,653.613 608.474,655.28 604.5,657.5C 602.297,657.604 600.297,658.27 598.5,659.5C 593.169,659.655 588.502,661.321 584.5,664.5C 583.833,664.5 583.167,664.5 582.5,664.5C 579.998,664.749 577.498,665.083 575,665.5C 573.319,665.608 572.152,666.275 571.5,667.5C 564.88,668.589 558.547,670.589 552.5,673.5C 552.167,673.5 551.833,673.5 551.5,673.5C 547.51,673.999 543.51,674.499 539.5,675C 530.726,677.721 522.06,679.888 513.5,681.5C 507.317,681.13 501.651,682.464 496.5,685.5C 490.804,685.447 485.138,685.78 479.5,686.5C 476.833,686.5 474.167,686.5 471.5,686.5C 457.993,687.176 444.66,688.176 431.5,689.5C 429.901,689.232 428.568,689.566 427.5,690.5C 420.833,690.5 414.167,690.5 407.5,690.5C 271.504,688.91 135.504,687.577 -0.5,686.5C -0.5,457.5 -0.5,228.5 -0.5,-0.5 Z"/></g>
<g><path style="opacity:1" fill="#fefdf7" d="M 889.5,-0.5 C 942.5,-0.5 995.5,-0.5 1048.5,-0.5C 1048.5,21.1772 1048,42.8438 1047,64.5C 1044.03,66.7683 1042.37,69.7683 1042,73.5C 1041.33,184.833 1041.33,296.167 1042,407.5C 1044.54,417.81 1051.04,421.643 1061.5,419C 1068.69,415.468 1071.85,409.635 1071,401.5C 1071.33,393.167 1071.67,384.833 1072,376.5C 1072.38,375.058 1073.21,374.058 1074.5,373.5C 1075.26,387.748 1076.92,401.748 1079.5,415.5C 1080.2,419.798 1080.53,424.131 1080.5,428.5C 1080.93,432.427 1081.93,436.093 1083.5,439.5C 1085.02,441.588 1086.02,443.922 1086.5,446.5C 1086.96,449.33 1087.63,451.997 1088.5,454.5C 1088.89,459.276 1090.22,463.609 1092.5,467.5C 1092.5,468.167 1092.83,468.5 1093.5,468.5C 1093.97,472.934 1095.3,476.934 1097.5,480.5C 1098.17,480.5 1098.5,480.833 1098.5,481.5C 1098.34,483.199 1098.51,484.866 1099,486.5C 1101.64,491.565 1103.8,496.899 1105.5,502.5C 1109.64,508.06 1113.14,514.06 1116,520.5C 1117.05,522.618 1118.55,524.284 1120.5,525.5C 1127.05,535.243 1133.89,544.909 1141,554.5C 1145.71,559.706 1150.21,565.039 1154.5,570.5C 1155.83,573.833 1158.17,576.167 1161.5,577.5C 1161.34,578.873 1161.51,580.207 1162,581.5C 1165.91,585.2 1170.08,588.533 1174.5,591.5C 1178.96,594.122 1182.62,597.622 1185.5,602C 1190.01,605.023 1194.34,608.189 1198.5,611.5C 1199.91,613.914 1201.91,615.581 1204.5,616.5C 1207.4,620.24 1211.06,622.907 1215.5,624.5C 1218.19,627.185 1221.19,629.518 1224.5,631.5C 1226.74,635.294 1230.07,637.627 1234.5,638.5C 1235.17,638.833 1235.83,639.167 1236.5,639.5C 1241.76,644.892 1248.09,648.559 1255.5,650.5C 1257.78,651.449 1259.78,652.782 1261.5,654.5C 1260.5,675.327 1260.17,696.327 1260.5,717.5C 1263.39,716.99 1265.72,717.656 1267.5,719.5C 844.833,719.5 422.167,719.5 -0.5,719.5C -0.5,708.5 -0.5,697.5 -0.5,686.5C 135.504,687.577 271.504,688.91 407.5,690.5C 414.97,691.831 422.804,692.498 431,692.5C 438.833,692.333 446.667,692.167 454.5,692C 468.834,690.083 483.167,688.416 497.5,687C 503.023,685.635 508.357,684.135 513.5,682.5C 513.5,682.167 513.5,681.833 513.5,681.5C 526.82,680.735 539.486,678.069 551.5,673.5C 551.833,673.5 552.167,673.5 552.5,673.5C 561.846,673.181 570.513,670.847 578.5,666.5C 580.153,666.34 581.486,665.674 582.5,664.5C 583.167,664.5 583.833,664.5 584.5,664.5C 589.419,663.366 594.086,661.699 598.5,659.5C 600.297,658.27 602.297,657.604 604.5,657.5C 606.435,656.85 608.435,656.517 610.5,656.5C 615.214,655.64 619.881,654.474 624.5,653C 631.346,648.91 638.346,645.41 645.5,642.5C 648.874,640.483 652.207,638.483 655.5,636.5C 656.209,635.596 657.209,635.263 658.5,635.5C 661.767,634.244 665.101,633.077 668.5,632C 669.71,630.961 670.71,629.794 671.5,628.5C 671.833,628.5 672.167,628.5 672.5,628.5C 678.944,625.884 685.277,623.05 691.5,620C 693.398,618.583 695.064,617.083 696.5,615.5C 697.873,615.657 699.207,615.49 700.5,615C 704.833,612 709.167,609 713.5,606C 717.121,605.544 719.788,603.711 721.5,600.5C 724.978,598.009 728.311,595.342 731.5,592.5C 734.505,590.998 737.505,589.498 740.5,588C 741.305,586.887 741.972,585.721 742.5,584.5C 748.055,581.288 753.055,577.288 757.5,572.5C 761.082,570.88 764.082,568.547 766.5,565.5C 767.167,563.5 768.5,562.167 770.5,561.5C 774.105,559.528 777.105,556.861 779.5,553.5C 779.5,552.167 780.167,551.5 781.5,551.5C 784.167,548.833 786.833,546.167 789.5,543.5C 792.167,541.5 794.5,539.167 796.5,536.5C 796.5,535.833 796.833,535.5 797.5,535.5C 799.417,534.594 801.083,533.261 802.5,531.5C 803.453,528.57 805.12,526.237 807.5,524.5C 809.543,523.421 810.876,521.754 811.5,519.5C 813.543,518.421 814.876,516.754 815.5,514.5C 816.272,513.306 817.272,512.306 818.5,511.5C 822.368,506.122 826.868,501.122 832,496.5C 834.727,493.16 836.894,489.493 838.5,485.5C 838.392,483.486 839.058,481.82 840.5,480.5C 844.693,476.977 847.693,472.644 849.5,467.5C 853.198,458.746 857.198,450.08 861.5,441.5C 866.34,432.979 870.007,423.979 872.5,414.5C 872.4,411.892 873.067,409.558 874.5,407.5C 877.878,402.049 879.545,396.049 879.5,389.5C 883.627,384.342 885.294,378.342 884.5,371.5C 884.549,367.922 885.215,364.589 886.5,361.5C 886.334,366.511 886.501,371.511 887,376.5C 891.159,383.67 897.326,386.17 905.5,384C 912.099,380.616 915.599,375.116 916,367.5C 917.208,358.004 918.375,348.504 919.5,339C 918.708,333.334 917.208,327.834 915,322.5C 907.619,314.967 899.952,314.634 892,321.5C 890.978,327.269 890.145,332.936 889.5,338.5C 889.5,225.5 889.5,112.5 889.5,-0.5 Z"/></g>
<g><path style="opacity:1" fill="#fefefe" d="M 1048.5,-0.5 C 1057.17,-0.5 1065.83,-0.5 1074.5,-0.5C 1074.5,44.8333 1074.5,90.1667 1074.5,135.5C 1074.5,214.833 1074.5,294.167 1074.5,373.5C 1073.21,374.058 1072.38,375.058 1072,376.5C 1071.67,384.833 1071.33,393.167 1071,401.5C 1071.85,409.635 1068.69,415.468 1061.5,419C 1051.04,421.643 1044.54,417.81 1042,407.5C 1041.33,296.167 1041.33,184.833 1042,73.5C 1042.37,69.7683 1044.03,66.7683 1047,64.5C 1048,42.8438 1048.5,21.1772 1048.5,-0.5 Z"/></g>
<g><path style="opacity:1" fill="#00331d" d="M 1074.5,-0.5 C 1142.83,-0.5 1211.17,-0.5 1279.5,-0.5C 1279.5,220.833 1279.5,442.167 1279.5,663.5C 1273.23,661.033 1267.23,658.033 1261.5,654.5C 1259.78,652.782 1257.78,651.449 1255.5,650.5C 1250.38,647.225 1245.38,643.725 1240.5,640C 1239.21,639.51 1237.87,639.343 1236.5,639.5C 1235.83,639.167 1235.17,638.833 1234.5,638.5C 1231.87,635.185 1228.54,632.851 1224.5,631.5C 1221.19,629.518 1218.19,627.185 1215.5,624.5C 1214.71,623.206 1213.71,622.039 1212.5,621C 1209.69,619.677 1207.02,618.177 1204.5,616.5C 1203.09,614.086 1201.09,612.419 1198.5,611.5C 1194.34,608.189 1190.01,605.023 1185.5,602C 1182.62,597.622 1178.96,594.122 1174.5,591.5C 1170.1,586.774 1165.77,582.108 1161.5,577.5C 1159.5,574.833 1157.17,572.5 1154.5,570.5C 1150.21,565.039 1145.71,559.706 1141,554.5C 1133.89,544.909 1127.05,535.243 1120.5,525.5C 1113.08,510.736 1105.75,496.069 1098.5,481.5C 1098.5,480.833 1098.17,480.5 1097.5,480.5C 1096.97,476.788 1096.14,473.121 1095,469.5C 1094.62,468.944 1094.12,468.611 1093.5,468.5C 1092.83,468.5 1092.5,468.167 1092.5,467.5C 1091.5,463.609 1090.66,459.609 1090,455.5C 1089.62,454.944 1089.12,454.611 1088.5,454.5C 1088.66,452.143 1088.5,449.81 1088,447.5C 1087.62,446.944 1087.12,446.611 1086.5,446.5C 1085.26,437.805 1083.76,429.138 1082,420.5C 1081.63,418.509 1080.79,416.842 1079.5,415.5C 1078.2,400.857 1077.03,386.19 1076,371.5C 1075.83,292.666 1075.33,213.999 1074.5,135.5C 1074.5,90.1667 1074.5,44.8333 1074.5,-0.5 Z"/></g>
<g><path style="opacity:1" fill="#fdfdfd" d="M 886.5,361.5 C 887.409,353.806 888.409,346.14 889.5,338.5C 890.145,332.936 890.978,327.269 892,321.5C 899.952,314.634 907.619,314.967 915,322.5C 917.208,327.834 918.708,333.334 919.5,339C 918.375,348.504 917.208,358.004 916,367.5C 915.599,375.116 912.099,380.616 905.5,384C 897.326,386.17 891.159,383.67 887,376.5C 886.501,371.511 886.334,366.511 886.5,361.5 Z"/></g>
<g><path style="opacity:1" fill="#b7c5ba" d="M 884.5,371.5 C 885.294,378.342 883.627,384.342 879.5,389.5C 880.565,383.231 882.231,377.231 884.5,371.5 Z"/></g>
<g><path style="opacity:1" fill="#a2b4aa" d="M 1074.5,135.5 C 1075.33,213.999 1075.83,292.666 1076,371.5C 1077.03,386.19 1078.2,400.857 1079.5,415.5C 1076.92,401.748 1075.26,387.748 1074.5,373.5C 1074.5,294.167 1074.5,214.833 1074.5,135.5 Z"/></g>
<g><path style="opacity:1" fill="#7f988a" d="M 879.5,389.5 C 879.545,396.049 877.878,402.049 874.5,407.5C 875.804,401.274 877.471,395.274 879.5,389.5 Z"/></g>
<g><path style="opacity:1" fill="#9cafa3" d="M 872.5,414.5 C 870.007,423.979 866.34,432.979 861.5,441.5C 863.718,434.61 865.718,427.61 867.5,420.5C 868.5,420.5 869.5,420.5 870.5,420.5C 870.054,417.99 870.72,415.99 872.5,414.5 Z"/></g>
<g><path style="opacity:1" fill="#517362" d="M 1079.5,415.5 C 1080.79,416.842 1081.63,418.509 1082,420.5C 1083.76,429.138 1085.26,437.805 1086.5,446.5C 1086.02,443.922 1085.02,441.588 1083.5,439.5C 1083.66,436.482 1083.5,433.482 1083,430.5C 1082.29,429.619 1081.46,428.953 1080.5,428.5C 1080.53,424.131 1080.2,419.798 1079.5,415.5 Z"/></g>
<g><path style="opacity:1" fill="#b6c4b9" d="M 1080.5,428.5 C 1081.46,428.953 1082.29,429.619 1083,430.5C 1083.5,433.482 1083.66,436.482 1083.5,439.5C 1081.93,436.093 1080.93,432.427 1080.5,428.5 Z"/></g>
<g><path style="opacity:1" fill="#628171" d="M 1086.5,446.5 C 1087.12,446.611 1087.62,446.944 1088,447.5C 1088.5,449.81 1088.66,452.143 1088.5,454.5C 1087.63,451.997 1086.96,449.33 1086.5,446.5 Z"/></g>
<g><path style="opacity:1" fill="#7e9789" d="M 1088.5,454.5 C 1089.12,454.611 1089.62,454.944 1090,455.5C 1090.66,459.609 1091.5,463.609 1092.5,467.5C 1090.22,463.609 1088.89,459.276 1088.5,454.5 Z"/></g>
<g><path style="opacity:1" fill="#7c9687" d="M 861.5,441.5 C 857.198,450.08 853.198,458.746 849.5,467.5C 848.5,468.167 847.5,468.833 846.5,469.5C 850.42,461.591 854.253,453.591 858,445.5C 858.49,444.207 858.657,442.873 858.5,441.5C 859.5,441.5 860.5,441.5 861.5,441.5 Z"/></g>
<g><path style="opacity:1" fill="#c6d1c7" d="M 849.5,467.5 C 847.693,472.644 844.693,476.977 840.5,480.5C 840.557,479.391 840.89,478.391 841.5,477.5C 843.167,474.833 844.833,472.167 846.5,469.5C 847.5,468.833 848.5,468.167 849.5,467.5 Z"/></g>
<g><path style="opacity:1" fill="#6e8b7b" d="M 1093.5,468.5 C 1094.12,468.611 1094.62,468.944 1095,469.5C 1096.14,473.121 1096.97,476.788 1097.5,480.5C 1095.3,476.934 1093.97,472.934 1093.5,468.5 Z"/></g>
<g><path style="opacity:1" fill="#7c9587" d="M 841.5,477.5 C 840.89,478.391 840.557,479.391 840.5,480.5C 839.058,481.82 838.392,483.486 838.5,485.5C 837.5,486.167 836.5,486.833 835.5,487.5C 836.59,483.491 838.59,480.158 841.5,477.5 Z"/></g>
<g><path style="opacity:1" fill="#bbc8bd" d="M 838.5,485.5 C 836.894,489.493 834.727,493.16 832,496.5C 826.868,501.122 822.368,506.122 818.5,511.5C 823.446,503.014 829.113,495.014 835.5,487.5C 836.5,486.833 837.5,486.167 838.5,485.5 Z"/></g>
<g><path style="opacity:1" fill="#a4b6aa" d="M 1098.5,481.5 C 1105.75,496.069 1113.08,510.736 1120.5,525.5C 1118.55,524.284 1117.05,522.618 1116,520.5C 1113.14,514.06 1109.64,508.06 1105.5,502.5C 1103.8,496.899 1101.64,491.565 1099,486.5C 1098.51,484.866 1098.34,483.199 1098.5,481.5 Z"/></g>
<g><path style="opacity:1" fill="#789384" d="M 815.5,514.5 C 814.876,516.754 813.543,518.421 811.5,519.5C 812.136,517.205 813.469,515.539 815.5,514.5 Z"/></g>
<g><path style="opacity:1" fill="#829a8c" d="M 811.5,519.5 C 810.876,521.754 809.543,523.421 807.5,524.5C 808.136,522.205 809.469,520.539 811.5,519.5 Z"/></g>
<g><path style="opacity:1" fill="#80988a" d="M 807.5,524.5 C 805.12,526.237 803.453,528.57 802.5,531.5C 801.083,533.261 799.417,534.594 797.5,535.5C 799.06,532.261 801.06,529.261 803.5,526.5C 804.622,525.37 805.956,524.703 807.5,524.5 Z"/></g>
<g><path style="opacity:1" fill="#648373" d="M 796.5,536.5 C 794.5,539.167 792.167,541.5 789.5,543.5C 790.833,540.167 793.167,537.833 796.5,536.5 Z"/></g>
<g><path style="opacity:1" fill="#5c7c6b" d="M 789.5,543.5 C 786.833,546.167 784.167,548.833 781.5,551.5C 782.833,547.5 785.5,544.833 789.5,543.5 Z"/></g>
<g><path style="opacity:1" fill="#718d7e" d="M 779.5,553.5 C 777.105,556.861 774.105,559.528 770.5,561.5C 770.511,559.983 771.177,558.816 772.5,558C 774.734,556.25 777.068,554.75 779.5,553.5 Z"/></g>
<g><path style="opacity:1" fill="#789384" d="M 766.5,565.5 C 764.082,568.547 761.082,570.88 757.5,572.5C 759.879,569.465 762.879,567.131 766.5,565.5 Z"/></g>
<g><path style="opacity:1" fill="#8ea497" d="M 1154.5,570.5 C 1157.17,572.5 1159.5,574.833 1161.5,577.5C 1158.17,576.167 1155.83,573.833 1154.5,570.5 Z"/></g>
<g><path style="opacity:1" fill="#6e8b7b" d="M 757.5,572.5 C 753.055,577.288 748.055,581.288 742.5,584.5C 743.066,582.922 744.066,581.588 745.5,580.5C 749.264,577.389 753.264,574.723 757.5,572.5 Z"/></g>
<g><path style="opacity:1" fill="#b6c4b9" d="M 1161.5,577.5 C 1165.77,582.108 1170.1,586.774 1174.5,591.5C 1170.08,588.533 1165.91,585.2 1162,581.5C 1161.51,580.207 1161.34,578.873 1161.5,577.5 Z"/></g>
<g><path style="opacity:1" fill="#7f988a" d="M 742.5,584.5 C 741.972,585.721 741.305,586.887 740.5,588C 737.505,589.498 734.505,590.998 731.5,592.5C 731.369,591.624 731.702,590.957 732.5,590.5C 735.868,588.446 739.201,586.446 742.5,584.5 Z"/></g>
<g><path style="opacity:1" fill="#678575" d="M 731.5,592.5 C 728.311,595.342 724.978,598.009 721.5,600.5C 720.391,600.557 719.391,600.89 718.5,601.5C 721.959,597.396 726.292,594.396 731.5,592.5 Z"/></g>
<g><path style="opacity:1" fill="#567766" d="M 718.5,601.5 C 716.967,603.245 714.967,604.245 712.5,604.5C 714.033,602.755 716.033,601.755 718.5,601.5 Z"/></g>
<g><path style="opacity:1" fill="#b8c5ba" d="M 721.5,600.5 C 719.788,603.711 717.121,605.544 713.5,606C 709.167,609 704.833,612 700.5,615C 699.207,615.49 697.873,615.657 696.5,615.5C 701.549,611.475 706.882,607.808 712.5,604.5C 714.967,604.245 716.967,603.245 718.5,601.5C 719.391,600.89 720.391,600.557 721.5,600.5 Z"/></g>
<g><path style="opacity:1" fill="#5c7c6c" d="M 1198.5,611.5 C 1201.09,612.419 1203.09,614.086 1204.5,616.5C 1201.91,615.581 1199.91,613.914 1198.5,611.5 Z"/></g>
<g><path style="opacity:1" fill="#5e7e6d" d="M 1204.5,616.5 C 1207.02,618.177 1209.69,619.677 1212.5,621C 1213.71,622.039 1214.71,623.206 1215.5,624.5C 1211.06,622.907 1207.4,620.24 1204.5,616.5 Z"/></g>
<g><path style="opacity:1" fill="#9bafa2" d="M 696.5,615.5 C 695.064,617.083 693.398,618.583 691.5,620C 685.277,623.05 678.944,625.884 672.5,628.5C 679.985,623.431 687.985,619.097 696.5,615.5 Z"/></g>
<g><path style="opacity:1" fill="#8fa598" d="M 671.5,628.5 C 670.71,629.794 669.71,630.961 668.5,632C 665.101,633.077 661.767,634.244 658.5,635.5C 662.184,632.248 666.517,629.915 671.5,628.5 Z"/></g>
<g><path style="opacity:1" fill="#a3b4a8" d="M 1224.5,631.5 C 1228.54,632.851 1231.87,635.185 1234.5,638.5C 1230.07,637.627 1226.74,635.294 1224.5,631.5 Z"/></g>
<g><path style="opacity:1" fill="#91a699" d="M 655.5,636.5 C 652.207,638.483 648.874,640.483 645.5,642.5C 642.204,643.424 638.871,644.424 635.5,645.5C 640.808,642.841 646.141,640.008 651.5,637C 652.793,636.51 654.127,636.343 655.5,636.5 Z"/></g>
<g><path style="opacity:1" fill="#a5b7ab" d="M 1236.5,639.5 C 1237.87,639.343 1239.21,639.51 1240.5,640C 1245.38,643.725 1250.38,647.225 1255.5,650.5C 1248.09,648.559 1241.76,644.892 1236.5,639.5 Z"/></g>
<g><path style="opacity:1" fill="#90a598" d="M 631.5,647.5 C 628.2,649.642 624.533,650.975 620.5,651.5C 623.8,649.358 627.467,648.025 631.5,647.5 Z"/></g>
<g><path style="opacity:1" fill="#d8dfd7" d="M 645.5,642.5 C 638.346,645.41 631.346,648.91 624.5,653C 619.881,654.474 615.214,655.64 610.5,656.5C 612.833,655.167 615.167,653.833 617.5,652.5C 618.391,651.89 619.391,651.557 620.5,651.5C 624.533,650.975 628.2,649.642 631.5,647.5C 632.514,646.326 633.847,645.66 635.5,645.5C 638.871,644.424 642.204,643.424 645.5,642.5 Z"/></g>
<g><path style="opacity:1" fill="#fefefe" d="M 1261.5,654.5 C 1267.23,658.033 1273.23,661.033 1279.5,663.5C 1279.5,682.167 1279.5,700.833 1279.5,719.5C 1275.5,719.5 1271.5,719.5 1267.5,719.5C 1265.72,717.656 1263.39,716.99 1260.5,717.5C 1260.17,696.327 1260.5,675.327 1261.5,654.5 Z"/></g>
<g><path style="opacity:1" fill="#779283" d="M 617.5,652.5 C 615.167,653.833 612.833,655.167 610.5,656.5C 608.435,656.517 606.435,656.85 604.5,657.5C 608.474,655.28 612.808,653.613 617.5,652.5 Z"/></g>
<g><path style="opacity:1" fill="#95aa9d" d="M 598.5,659.5 C 594.086,661.699 589.419,663.366 584.5,664.5C 588.502,661.321 593.169,659.655 598.5,659.5 Z"/></g>
<g><path style="opacity:1" fill="#4e7160" d="M 582.5,664.5 C 581.486,665.674 580.153,666.34 578.5,666.5C 576.139,666.674 573.806,667.007 571.5,667.5C 572.152,666.275 573.319,665.608 575,665.5C 577.498,665.083 579.998,664.749 582.5,664.5 Z"/></g>
<g><path style="opacity:1" fill="#bfcbc1" d="M 578.5,666.5 C 570.513,670.847 561.846,673.181 552.5,673.5C 558.547,670.589 564.88,668.589 571.5,667.5C 573.806,667.007 576.139,666.674 578.5,666.5 Z"/></g>
<g><path style="opacity:1" fill="#a9b9ae" d="M 551.5,673.5 C 539.486,678.069 526.82,680.735 513.5,681.5C 522.06,679.888 530.726,677.721 539.5,675C 543.51,674.499 547.51,673.999 551.5,673.5 Z"/></g>
<g><path style="opacity:1" fill="#92a79a" d="M 513.5,681.5 C 513.5,681.833 513.5,682.167 513.5,682.5C 507.765,683.178 502.098,684.178 496.5,685.5C 501.651,682.464 507.317,681.13 513.5,681.5 Z"/></g>
<g><path style="opacity:1" fill="#8da396" d="M 471.5,686.5 C 474.167,686.5 476.833,686.5 479.5,686.5C 475.081,687.972 470.414,688.638 465.5,688.5C 467.5,687.833 469.5,687.167 471.5,686.5 Z"/></g>
<g><path style="opacity:1" fill="#476b5a" d="M 471.5,686.5 C 469.5,687.167 467.5,687.833 465.5,688.5C 464.167,688.5 462.833,688.5 461.5,688.5C 451.512,689.113 441.512,689.447 431.5,689.5C 444.66,688.176 457.993,687.176 471.5,686.5 Z"/></g>
<g><path style="opacity:1" fill="#9eb1a4" d="M 461.5,688.5 C 459.708,689.309 457.708,689.809 455.5,690C 446.173,690.5 436.839,690.666 427.5,690.5C 428.568,689.566 429.901,689.232 431.5,689.5C 441.512,689.447 451.512,689.113 461.5,688.5 Z"/></g>
<g><path style="opacity:1" fill="#e5e9e2" d="M 513.5,682.5 C 508.357,684.135 503.023,685.635 497.5,687C 483.167,688.416 468.834,690.083 454.5,692C 446.667,692.167 438.833,692.333 431,692.5C 422.804,692.498 414.97,691.831 407.5,690.5C 414.167,690.5 420.833,690.5 427.5,690.5C 436.839,690.666 446.173,690.5 455.5,690C 457.708,689.809 459.708,689.309 461.5,688.5C 462.833,688.5 464.167,688.5 465.5,688.5C 470.414,688.638 475.081,687.972 479.5,686.5C 485.138,685.78 490.804,685.447 496.5,685.5C 502.098,684.178 507.765,683.178 513.5,682.5 Z"/></g>
</svg>
